<svg width="400" height="199" viewBox="0 0 400 199" fill="none" xmlns="http://www.w3.org/2000/svg">
<path d="M204.311 2.82855C207.061 2.20255 212.461 1.33256 216.311 0.896564C226.661 -0.276435 226.81 -0.273438 226.826 1.08156C226.838 1.99756 227.072 1.96756 227.705 0.969563C228.364 -0.0714375 230.073 -0.232444 234.939 0.287556C240.901 0.924556 249.811 4.39454 249.811 6.07954C249.811 6.49354 250.599 7.69956 251.561 8.75956C255.2 12.7696 256.303 14.3146 256.061 15.0616C255.924 15.4846 256.538 15.8316 257.428 15.8316C258.552 15.8316 258.885 16.4405 258.521 17.8316C258.174 19.1586 258.491 19.8316 259.461 19.8316C261.499 19.8316 264.632 27.3976 266.398 36.5876C267.843 44.0996 267.827 56.3786 266.369 58.7376C265.975 59.3756 265.452 61.5705 265.208 63.6145C264.964 65.6585 263.938 68.4656 262.928 69.8506C261.918 71.2366 260.797 73.2616 260.436 74.3506C259.588 76.9066 251.436 85.8316 249.949 85.8316C249.323 85.8316 248.811 86.2815 248.811 86.8316C248.811 87.3816 248.361 87.8316 247.811 87.8316C247.261 87.8316 245.911 88.6196 244.811 89.5816C243.711 90.5435 241.979 92.0505 240.963 92.9295C237.069 96.2965 208.159 99.1945 203.587 96.6755C202.335 95.9865 200.541 95.5396 199.6 95.6825C197.965 95.9325 194.642 94.5535 192.374 92.6855C191.789 92.2035 190.074 90.8815 188.561 89.7485C187.048 88.6145 185.811 87.0596 185.811 86.2946C185.811 85.5286 184.911 84.4205 183.811 83.8316C182.711 83.2426 181.811 82.2496 181.811 81.6256C181.811 81.0006 181.078 79.6786 180.182 78.6886C177.268 75.4686 174.919 58.7146 177.018 56.1156C177.558 55.4466 177.816 54.3456 177.59 53.6696C176.75 51.1496 182.728 38.0226 185.061 37.2646C186.023 36.9526 186.826 36.1646 186.844 35.5146C186.89 33.8976 190.379 29.8316 191.721 29.8316C192.321 29.8316 192.811 29.4115 192.811 28.8985C192.811 28.3855 193.711 27.6806 194.811 27.3316C195.911 26.9826 196.811 26.0266 196.811 25.2076C196.811 22.7216 205.607 19.4275 211.952 19.5365C218.324 19.6465 224.444 22.1006 225.333 24.9016C225.661 25.9346 227.14 27.3656 228.62 28.0816C230.574 29.0276 231.26 30.0616 231.126 31.8576C231.017 33.3076 231.151 33.6066 231.449 32.5816C231.729 31.6196 232.6 30.8316 233.384 30.8316C234.808 30.8316 235.297 32.5576 234.939 36.3226C234.834 37.4176 235.372 38.7685 236.134 39.3255C240.196 42.2955 243.646 55.5796 240.811 57.3316C240.261 57.6716 239.811 59.0615 239.811 60.4205C239.811 62.0595 238.179 64.4816 234.965 67.6116C228.91 73.5096 228.122 74.0866 223.811 75.7836C221.886 76.5406 219.544 77.8136 218.606 78.6105C216.511 80.3915 207.159 80.6556 204.136 79.0186C201.52 77.6026 196.817 68.0726 196.796 64.1436C196.787 62.5966 196.406 60.7415 195.949 60.0195C195.491 59.2985 195.584 56.6676 196.155 54.1726C196.905 50.8956 197.833 49.3936 199.502 48.7586C200.772 48.2766 201.811 47.2106 201.811 46.3916C201.811 44.1226 205.603 42.4136 207.375 43.8846C208.504 44.8216 208.818 44.7836 208.843 43.7036C208.864 42.7856 209.36 42.9736 210.343 44.2726C211.565 45.8886 211.811 45.9425 211.811 44.5925C211.811 43.2385 212.348 43.1245 215.061 43.9035C216.849 44.4155 218.462 45.2865 218.646 45.8396C218.831 46.3915 219.344 46.6206 219.787 46.3466C222.545 44.6416 224.718 57.3245 222.114 59.9285C220.382 61.6605 217.072 59.2946 216.298 55.7726C215.926 54.0806 214.877 52.4226 213.967 52.0866C213.056 51.7516 212.043 51.0816 211.716 50.5966C210.673 49.0526 204.063 53.7356 203.558 56.3766C202.956 59.5216 205.579 71.0466 207.136 72.1036C209.833 73.9336 223.811 69.4536 223.811 66.7596C223.811 66.1916 225.138 65.2646 226.759 64.6996C229.913 63.6006 233.183 58.9676 234.257 54.0786C234.723 51.9576 234.314 50.0075 232.863 47.4245C231.735 45.4145 230.811 43.1096 230.811 42.3016C230.811 41.4926 230.361 40.8316 229.811 40.8316C229.261 40.8316 228.811 40.2225 228.811 39.4776C228.811 38.7326 227.679 36.9016 226.295 35.4086C224.911 33.9156 224.083 32.1616 224.455 31.5126C224.827 30.8626 224.787 30.6416 224.365 31.0216C223.943 31.4006 222.708 30.8825 221.621 29.8685C218.656 27.1065 211.708 25.6225 207.922 26.9425C206.211 27.5395 204.811 28.4335 204.811 28.9295C204.811 29.4255 203.475 29.8316 201.842 29.8316C199.775 29.8316 199.03 30.2376 199.387 31.1696C199.924 32.5686 192.347 40.8316 190.527 40.8316C189.95 40.8316 189.76 41.1135 190.105 41.4595C190.45 41.8045 189.699 43.9415 188.435 46.2095C187.172 48.4765 186.116 51.0066 186.089 51.8316C186.062 52.6566 185.308 55.0196 184.412 57.0816C183.517 59.1446 183.188 60.8316 183.681 60.8316C184.174 60.8316 184.813 61.7316 185.101 62.8316C185.388 63.9316 185.278 64.8316 184.855 64.8316C184.107 64.8316 184.183 65.8476 185.431 72.5566C186.069 75.9846 196.733 87.8316 199.181 87.8316C199.909 87.8316 201.917 88.5365 203.645 89.3985C205.372 90.2605 207.244 90.6815 207.804 90.3355C208.365 89.9895 210.627 89.6815 212.831 89.6506C215.035 89.6206 217.061 89.2366 217.332 88.7986C217.603 88.3596 221.184 87.6866 225.291 87.3016C229.661 86.8915 233.234 86.0276 233.906 85.2166C234.539 84.4546 235.69 83.8316 236.465 83.8316C237.24 83.8316 238.133 83.1566 238.449 82.3316C238.766 81.5066 239.594 80.8316 240.289 80.8316C242.847 80.8316 249.771 72.5866 252.884 65.8316C253.518 64.4566 254.708 62.0576 255.528 60.4996C256.518 58.6216 257.087 54.2456 257.217 47.4996C257.452 35.3366 255.762 30.1726 248.197 19.9406C242.184 11.8066 242.314 12.1045 244.506 11.5065C245.499 11.2365 244.505 11.2386 242.297 11.5126C239.107 11.9096 237.9 11.5876 236.414 9.94556C235.385 8.80856 234.104 8.15056 233.566 8.48356C233.028 8.81556 232.222 8.49654 231.775 7.77354C231.144 6.75254 230.645 6.72355 229.534 7.64655C228.747 8.29955 227.025 8.84655 225.707 8.86155C221.306 8.91355 215.33 9.64556 213.561 10.3496C212.466 10.7856 211.811 10.5855 211.811 9.81654C211.811 8.96754 211.423 8.89556 210.561 9.58256C209.434 10.4816 201.601 12.1756 197.81 12.3406C196.984 12.3766 195.743 12.7555 195.051 13.1835C194.359 13.6105 192.935 13.6885 191.886 13.3555C190.837 13.0225 189.674 13.2435 189.301 13.8475C188.928 14.4505 186.303 16.0696 183.467 17.4456C176.124 21.0066 172.367 23.2015 171.945 24.1785C171.015 26.3335 165.456 31.8316 164.207 31.8316C163.439 31.8316 162.755 32.2816 162.686 32.8316C162.617 33.3816 162.505 34.2475 162.436 34.7565C162.276 35.9405 156.782 42.1606 154.808 43.3936C153.173 44.4146 144.811 55.1046 144.811 56.1736C144.811 56.5356 143.978 57.6646 142.96 58.6826C141.882 59.7606 140.815 62.7916 140.407 65.9326C140.021 68.9026 139.086 73.8066 138.328 76.8316C137.571 79.8566 136.687 84.0845 136.363 86.2265C136.04 88.3695 134.924 91.7445 133.884 93.7265C132.843 95.7095 131.445 99.4605 130.776 102.064C130.066 104.83 129.134 106.531 128.532 106.159C127.925 105.784 127.806 106.015 128.243 106.721C128.65 107.38 128.534 108.462 127.986 109.126C127.437 109.789 126.836 111.676 126.649 113.318C126.378 115.709 125.83 116.307 123.899 116.318C122.572 116.326 121.317 116.836 121.109 117.451C120.871 118.158 121.666 118.391 123.271 118.084C126.226 117.52 126.534 118.923 124.367 123.077C123.579 124.586 122.63 127.856 122.257 130.342C121.884 132.828 121.034 135.193 120.367 135.597C119.221 136.292 117.51 139.167 114.872 144.831C110.858 153.452 107.88 157.831 106.031 157.831C105.295 157.831 104.953 158.251 105.27 158.765C106.105 160.115 98.6899 166.999 97.0699 166.377C96.3199 166.089 95.9509 166.249 96.2479 166.73C96.5459 167.212 96.2309 168.067 95.5499 168.632C93.3189 170.483 80.3529 174.943 78.5609 174.475C77.5069 174.201 76.8109 174.578 76.8109 175.425C76.8109 176.198 76.1639 176.831 75.3729 176.831C73.2209 176.831 73.9129 173.093 76.2689 171.989C77.3919 171.463 79.7729 170.484 81.5609 169.812C83.3489 169.139 84.8109 168.193 84.8109 167.71C84.8109 167.227 85.2319 166.831 85.7459 166.831C86.2599 166.831 87.9479 166.309 89.4959 165.671C91.0439 165.032 92.8769 164.604 93.5679 164.717C94.2599 164.83 95.2519 163.8 95.7739 162.429C96.2949 161.058 97.8669 159.186 99.2659 158.269C100.666 157.352 101.811 156.171 101.811 155.645C101.811 154.476 104.358 151.833 105.49 151.827C105.941 151.824 106.389 150.283 106.485 148.403C106.583 146.464 107.557 144.085 108.735 142.907C109.877 141.765 110.811 139.958 110.811 138.89C110.811 137.822 111.232 136.69 111.746 136.372C113.365 135.372 118.024 124.485 118.353 120.935C118.527 119.067 119.217 117.199 119.887 116.785C120.558 116.37 121.195 114.749 121.302 113.182C121.41 111.614 121.568 109.293 121.654 108.023C121.741 106.753 122.219 105.966 122.718 106.274C123.216 106.583 123.396 105.962 123.117 104.896C122.839 103.829 123.33 101.928 124.211 100.672C125.091 99.4145 125.811 97.6475 125.811 96.7435C125.811 95.8405 126.688 93.9855 127.761 92.6225C128.833 91.2595 129.724 89.0616 129.742 87.7376C129.759 86.4146 129.774 84.0936 129.776 82.5816C129.778 80.8416 130.314 79.8316 131.236 79.8316C132.037 79.8316 133.014 79.3116 133.406 78.6766C133.832 77.9876 133.682 77.7926 133.035 78.1936C131.46 79.1666 130.443 76.9806 131.742 75.4146C132.349 74.6836 132.571 73.3706 132.236 72.4966C131.901 71.6226 132.308 69.5406 133.142 67.8696C133.976 66.1986 134.242 64.8316 133.734 64.8316C132.542 64.8316 132.549 62.2905 133.747 60.0675C135.942 55.9945 137.811 51.4256 137.811 50.1346C137.811 49.3646 138.593 48.8755 139.561 49.0375C140.786 49.2435 141.257 48.7316 141.13 47.3316C141.017 46.0836 142.228 44.3916 144.352 42.8316C146.224 41.4566 147.768 39.8216 147.783 39.1976C147.799 38.5746 149.611 36.4385 151.811 34.4505C154.011 32.4625 155.811 30.6036 155.811 30.3196C155.811 29.8116 160.324 25.4775 170.311 16.3915C173.061 13.8895 175.951 11.8406 176.732 11.8376C177.514 11.8346 179.012 11.0546 180.062 10.1046C181.177 9.09556 183.577 8.37656 185.832 8.37656C187.956 8.37656 189.232 8.09156 188.668 7.74256C187.581 7.07156 190.047 6.03856 195.811 4.74956C197.736 4.31956 201.561 3.45555 204.311 2.82855Z" fill="#201E1F"/>
<path d="M304.061 60.1726C305.298 60.0846 307.886 59.6076 309.811 59.1116C313.934 58.0496 330.311 58.6036 330.311 59.8056C330.311 59.9316 332.037 60.1905 334.147 60.3815C336.256 60.5725 338.506 61.1516 339.147 61.6686C339.787 62.1856 342.899 63.1806 346.061 63.8796C349.571 64.6546 351.811 65.6726 351.811 66.4906C351.811 67.3336 353.018 67.8366 355.061 67.8466C356.848 67.8546 359.436 68.5176 360.811 69.3196C362.186 70.1216 364.774 71.4716 366.561 72.3186C368.348 73.1656 369.811 74.2846 369.811 74.8046C369.811 75.3256 371.611 76.2906 373.811 76.9496C376.011 77.6086 377.811 78.7515 377.811 79.4895C377.811 80.2275 378.418 80.8316 379.159 80.8316C380.832 80.8316 390.485 91.2085 393.67 96.4305C394.967 98.5575 396.432 102.781 396.924 105.815C397.417 108.85 398.167 113.357 398.592 115.832C399.504 121.146 399.483 121.377 397.729 125.582C396.983 127.37 395.684 128.884 394.842 128.948C393.696 129.035 393.752 129.179 395.061 129.521C396.94 130.012 397.367 131.37 395.924 132.262C395.437 132.563 394.744 134.377 394.385 136.292C394.025 138.206 392.624 141.088 391.271 142.696C389.918 144.304 388.811 145.979 388.811 146.416C388.811 148.007 380.528 154.66 379.188 154.145C378.371 153.832 377.811 154.271 377.811 155.225C377.811 156.109 377.249 156.883 376.561 156.946C373.848 157.197 373.229 157.388 370.996 158.657C367.687 160.537 364.659 160.951 363.183 159.726C362.481 159.143 361.045 158.939 359.991 159.274C358.937 159.608 356.778 159.352 355.193 158.704C353.608 158.055 351.69 157.399 350.93 157.247C350.171 157.094 349.068 156.488 348.48 155.9C347.892 155.312 346.775 154.831 345.998 154.831C343.552 154.831 329.811 142.931 329.811 140.812C329.811 140.208 329.416 139.957 328.932 140.256C327.926 140.878 320.811 132.134 320.811 130.275C320.811 129.599 320.136 128.787 319.311 128.47C318.176 128.035 317.811 126.197 317.811 120.914C317.811 114.83 318.192 113.368 320.775 109.54C324.263 104.372 330.674 98.6285 332.024 99.4635C332.545 99.7855 333.635 99.0995 334.448 97.9395C335.26 96.7805 336.761 95.8315 337.784 95.8315C338.807 95.8315 339.821 95.3015 340.037 94.6545C340.259 93.9865 340.973 93.8135 341.685 94.2535C342.653 94.8525 342.547 95.4655 341.221 96.9305C339.583 98.7405 339.601 98.8315 341.59 98.8315C343.125 98.8315 343.762 98.1025 343.995 96.0815C344.213 94.1805 344.851 93.3745 346.061 93.4705C347.024 93.5465 347.811 93.2095 347.811 92.7205C347.811 91.1805 356.465 91.7095 357.811 93.3315C358.496 94.1565 360.112 94.8315 361.402 94.8315C363.077 94.8315 363.583 95.2605 363.173 96.3315C362.739 97.4625 363.346 97.8315 365.637 97.8315C367.911 97.8315 368.856 98.3985 369.39 100.082C369.783 101.32 369.991 102.332 369.853 102.332C369.715 102.332 370.774 104.537 372.206 107.231C373.698 110.037 374.811 113.756 374.811 115.936C374.811 119.48 374.575 119.786 371.376 120.386C367.188 121.172 365.811 120.432 365.811 117.397C365.811 114.403 361.145 103.832 359.824 103.832C359.267 103.832 358.81 103.27 358.808 102.582C358.805 101.697 356.614 101.32 351.308 101.29C347.185 101.266 343.811 101.604 343.811 102.04C343.811 102.475 343.278 102.832 342.627 102.832C340.798 102.832 333.117 106.758 331.769 108.382C331.108 109.18 329.92 109.832 329.13 109.832C328.339 109.832 327.973 110.285 328.315 110.839C328.657 111.393 328.073 113.08 327.017 114.589C325.96 116.098 325.295 117.895 325.537 118.582C325.779 119.27 325.378 119.839 324.644 119.847C323.535 119.86 323.535 120.005 324.646 120.709C325.381 121.175 325.943 121.843 325.896 122.194C325.579 124.564 326.193 125.92 329.156 129.402C330.996 131.564 332.309 133.895 332.073 134.582C331.837 135.27 332.376 135.832 333.27 135.832C335.1 135.832 336.857 137.081 340.649 141.081C342.083 142.593 343.827 143.831 344.525 143.831C345.223 143.831 346.356 144.731 347.043 145.831C347.73 146.932 348.971 147.835 349.802 147.838C350.632 147.842 352.436 148.423 353.811 149.131C359.548 152.087 374.134 148.335 376.884 143.195C377.53 141.988 378.948 140.768 380.036 140.484C381.123 140.199 381.719 139.492 381.361 138.912C381.003 138.333 381.901 135.829 383.356 133.346C384.811 130.863 385.678 128.832 385.284 128.832C384.889 128.832 385.014 128.27 385.562 127.582C386.11 126.895 386.862 124.234 387.233 121.671C387.615 119.026 388.535 116.768 389.359 116.452C390.158 116.146 390.811 115.445 390.811 114.895C390.811 114.345 390.182 114.136 389.412 114.432C387.153 115.299 386.49 113.58 385.451 104.155C385.258 102.408 384.36 100.238 383.456 99.3335C382.551 98.4286 381.811 97.3015 381.811 96.8275C381.811 96.3535 380.911 95.6805 379.811 95.3315C378.711 94.9825 377.811 94.1495 377.811 93.4795C377.811 92.8105 376.406 91.3786 374.689 90.2976C372.971 89.2166 370.384 87.5485 368.939 86.5925C367.493 85.6365 365.636 84.5756 364.811 84.2346C363.986 83.8946 358.315 81.1586 352.209 78.1546C346.061 75.1306 339.151 72.4696 336.724 72.1906C334.314 71.9136 331.832 71.2636 331.208 70.7466C329.554 69.3736 310.669 68.7046 309.15 69.9646C308.462 70.5366 307.46 70.7326 306.924 70.4016C306.388 70.0696 305.667 70.2566 305.321 70.8156C304.976 71.3746 303.772 71.8316 302.646 71.8316C301.52 71.8316 299.711 72.9606 298.625 74.3416C297.539 75.7216 296.167 76.5516 295.576 76.1866C294.985 75.8216 294.78 75.9715 295.119 76.5206C295.458 77.0696 295.235 79.2766 294.623 81.4256C294.011 83.5736 293.408 87.1316 293.284 89.3316C292.977 94.7566 293.019 94.6425 291.216 95.0085C289.858 95.2835 289.953 95.7535 291.851 98.1615C293.56 100.329 294.191 102.722 294.545 108.369C295.001 115.636 294.97 115.754 292.41 116.397C289.009 117.25 289.124 118.305 292.781 119.82L295.751 121.05L295.333 129.191C294.538 144.628 293.718 150.367 290.785 161.008C288.493 169.326 287.12 172.462 284.577 175.198C281.205 178.825 271.562 185.831 269.942 185.831C269.438 185.831 268.746 186.557 268.406 187.444C267.987 188.536 267.072 188.871 265.576 188.48C264.14 188.104 262.635 188.587 261.286 189.855C260.142 190.929 256.755 192.296 253.759 192.893C250.763 193.49 247.861 194.07 247.311 194.183C246.761 194.295 245.827 194.69 245.235 195.06C244.644 195.431 240.6 196.019 236.25 196.369C231.9 196.718 227.884 197.286 227.326 197.631C226.768 197.976 222.711 198.385 218.311 198.538C213.911 198.692 209.24 198.864 207.93 198.922C206.621 198.979 205.215 198.484 204.805 197.822C204.341 197.07 203.831 196.99 203.448 197.609C203.111 198.154 200.693 198.432 198.073 198.227C195.454 198.022 191.736 197.802 189.811 197.738C184.098 197.548 173.538 194.086 168.506 190.753C165.924 189.042 163.811 187.296 163.811 186.873C163.811 186.449 162.011 184.856 159.811 183.331C157.611 181.806 155.811 180 155.811 179.317C155.811 178.635 155.138 177.517 154.316 176.835C153.493 176.152 152.289 173.736 151.641 171.463C150.992 169.191 150.145 166.882 149.76 166.331C148.723 164.854 148.592 150.831 149.615 150.831C150.097 150.831 151.08 149.046 151.8 146.864C152.521 144.681 155.293 140.447 157.961 137.454C160.628 134.46 162.811 131.702 162.811 131.323C162.811 130.551 168.735 124.832 169.535 124.832C169.816 124.832 171.592 123.475 173.481 121.817C175.369 120.159 180.745 116.991 185.427 114.777C193.226 111.089 194.668 110.743 202.625 110.649C211.217 110.547 215.495 110.941 217.353 112.006C217.88 112.308 219.658 112.879 221.305 113.274C224.895 114.136 226.811 115.587 226.811 117.445C226.811 118.874 224.918 118.802 212.811 116.911C209.786 116.439 206.411 116.144 205.311 116.255C200.555 116.736 195.041 118.238 191.504 120.017C189.41 121.069 186.87 121.668 185.86 121.347C184.519 120.922 184.061 121.247 184.166 122.548C184.262 123.725 183.721 124.233 182.577 124.042C181.308 123.829 181.018 124.208 181.497 125.456C181.912 126.537 181.759 126.918 181.081 126.499C179.422 125.474 163.811 139.591 163.811 142.115C163.811 142.658 162.714 144.119 161.373 145.361C160.032 146.604 159.189 147.876 159.501 148.188C159.812 148.499 159.13 150.749 157.985 153.186C154.688 160.199 157.09 169.375 163.98 176.09C165.537 177.607 166.811 179.242 166.811 179.724C166.811 180.205 169.736 182.053 173.311 183.831C176.886 185.609 179.811 187.425 179.811 187.867C179.811 188.309 184.321 188.99 189.834 189.381C197.414 189.919 200.114 190.487 200.91 191.711C201.863 193.179 201.913 193.173 201.444 191.649C200.978 190.136 202.101 189.977 212.619 190.06C219.049 190.111 225.661 189.862 227.311 189.508C233.689 188.139 240.664 187.784 241.289 188.796C242.334 190.486 243.811 189.975 243.811 187.925C243.811 186.108 246.95 185.188 255.94 184.368C256.836 184.287 258.833 183.391 260.379 182.379C261.924 181.366 264.454 180.573 266 180.617C268.139 180.678 268.811 180.235 268.811 178.764C268.811 177.701 269.438 176.831 270.204 176.831C270.97 176.831 271.856 176.156 272.173 175.331C272.489 174.506 273.325 173.823 274.03 173.814C276.114 173.786 279.771 169.284 280.444 165.916C280.788 164.197 281.461 162.548 281.94 162.252C282.419 161.956 282.811 160.813 282.811 159.713C282.811 158.613 283.23 157.973 283.742 158.288C285.269 159.232 285.892 157.176 284.884 154.523C284.232 152.809 284.385 150.576 285.381 147.265C286.173 144.635 286.899 139.613 286.996 136.105C287.093 132.597 287.542 129.498 287.994 129.219C288.446 128.939 288.322 127.786 287.717 126.656C287.112 125.527 286.828 123.191 287.086 121.467C287.343 119.743 287.154 117.269 286.665 115.971C286.176 114.672 285.559 110.172 285.293 105.971C285.028 101.769 284.544 96.4835 284.218 94.2235C283.739 90.8935 283.957 89.9895 285.372 89.4465C287.013 88.8165 287.007 88.6955 285.27 87.4255C283.495 86.1275 283.492 85.9665 285.192 83.3725C286.166 81.8865 287.143 78.8535 287.364 76.6315C287.79 72.3515 294.108 63.2796 295.895 64.3836C296.406 64.6996 297.095 64.2545 297.425 63.3945C297.755 62.5355 298.877 61.8316 299.918 61.8316C300.959 61.8316 301.811 61.4946 301.811 61.0816C301.811 60.6686 302.824 60.2596 304.061 60.1726Z" fill="#201E1F"/>
<path d="M45.3639 69.3916C46.2429 68.0486 47.9409 66.7966 49.1369 66.6086C53.7849 65.8756 69.5439 66.6346 73.9989 67.8056C76.5779 68.4836 79.4599 69.8916 80.4039 70.9346C81.3489 71.9776 82.6139 72.8456 83.2159 72.8626C84.8869 72.9106 88.0549 77.7536 87.4489 79.3336C87.0869 80.2746 87.4129 80.5376 88.4479 80.1405C90.9589 79.1766 100.79 91.4385 99.3599 93.7515C99.0679 94.2255 99.9879 95.3725 101.406 96.3025C102.824 97.2315 103.754 98.2215 103.473 98.5035C103.191 98.7845 103.779 100.925 104.779 103.258C108.425 111.763 107.823 127.493 103.812 128.542C102.591 128.861 102.256 129.708 102.612 131.572C103.023 133.723 102.81 134.046 101.348 133.484C100.019 132.975 99.7369 133.197 100.196 134.393C101.057 136.636 99.1259 139.761 96.1899 140.877C94.8149 141.4 93.9139 142.189 94.1859 142.63C94.4589 143.07 93.7449 144.015 92.6009 144.73C90.8099 145.848 90.6039 145.814 91.1149 144.481C91.5249 143.413 91.2589 143.105 90.2599 143.489C89.4629 143.795 88.8109 144.686 88.8109 145.469C88.8109 146.253 88.0229 147.16 87.0609 147.484C86.0989 147.808 83.3179 148.997 80.8819 150.127C75.3389 152.7 63.0119 153.54 55.6579 151.846C44.8609 149.359 36.2009 140.713 35.1859 131.407C34.3869 124.075 35.5179 115.503 37.6229 112.94C38.5509 111.809 40.4359 109.31 41.8109 107.386C43.1859 105.463 45.6609 103.189 47.3109 102.333C48.9609 101.477 50.9859 100.385 51.8109 99.9055C56.5869 97.1335 62.3749 95.5345 67.0319 95.6995C69.8879 95.8005 72.4689 96.2585 72.7679 96.7175C73.0669 97.1765 74.6609 98.2485 76.3109 99.0985C82.4359 102.257 89.5089 112.348 90.4599 119.289C90.9239 122.672 90.5689 124.238 88.6749 127.16C87.3749 129.166 85.5609 130.813 84.6439 130.82C83.7279 130.826 82.8049 131.35 82.5939 131.984C82.0699 133.555 72.6949 135.837 70.8209 134.85C69.9899 134.413 66.8359 133.535 63.8109 132.898C58.1129 131.699 54.6989 129.598 53.5439 126.582C53.0529 125.301 53.4019 124.792 54.8419 124.682C55.9249 124.599 57.3599 124.487 58.0309 124.432C58.7029 124.377 59.8209 125.457 60.5169 126.832C61.2119 128.207 61.7879 128.77 61.7959 128.082C61.8039 127.395 62.7109 126.832 63.8109 126.832C64.9109 126.832 65.8109 127.194 65.8109 127.637C65.8109 128.079 67.7719 128.375 70.1699 128.294C75.4679 128.115 83.4149 124.453 84.0879 121.88C84.6209 119.842 79.3889 109.832 77.7909 109.832C77.2519 109.832 76.8109 109.157 76.8109 108.332C76.8109 107.507 76.4069 106.832 75.9139 106.832C74.4499 106.832 68.8109 101.495 68.8109 100.109C68.8109 99.2905 68.1289 99.5135 66.9129 100.73C65.8689 101.774 63.5059 102.951 61.6629 103.346C59.8189 103.74 57.8609 104.399 57.3109 104.81C56.7609 105.22 55.0189 105.865 53.4399 106.243C51.8609 106.621 49.9119 107.588 49.1099 108.391C48.3069 109.193 47.2409 109.598 46.7419 109.289C46.2419 108.981 46.0889 109.392 46.3999 110.203C46.7299 111.064 46.1509 112.115 45.0089 112.726C42.5199 114.058 39.8119 120.76 39.8059 125.602C39.7979 131.607 42.7919 138.561 46.4699 141.081C49.1299 142.904 49.6139 143.769 49.1049 145.795L48.4819 148.277L51.2139 146.488C53.4399 145.029 54.2249 144.93 55.4609 145.955C57.7079 147.82 70.7109 147.402 76.4929 145.281C86.3389 141.665 91.8109 138.831 91.8109 137.346C91.8109 136.513 92.4859 135.832 93.3109 135.832C94.1359 135.832 94.8109 135.451 94.8109 134.985C94.8109 134.519 95.7109 133.1 96.8109 131.832C97.9109 130.564 98.8109 128.795 98.8109 127.901C98.8109 127.008 99.5319 125.247 100.414 123.989C102.237 121.386 102.508 112.002 100.849 108.903C99.4349 106.261 99.5299 105.842 101.561 105.769C103.038 105.715 102.997 105.578 101.298 104.889C100.191 104.439 98.2159 101.93 96.9079 99.3115C95.5999 96.6935 93.8059 93.7915 92.9209 92.8625C88.7709 88.5105 86.7969 85.6626 87.3309 84.7986C87.6519 84.2796 87.3009 84.0895 86.5509 84.3775C85.7719 84.6765 84.6279 83.8586 83.8869 82.4736C83.1719 81.1386 80.1529 78.8135 77.1779 77.3085C74.2029 75.8036 71.5329 74.1915 71.2459 73.7265C70.9589 73.2616 69.3929 73.0356 67.7669 73.2246C66.1409 73.4146 64.8109 73.1516 64.8109 72.6416C64.8109 72.1306 64.2919 72.0346 63.6579 72.4256C63.0239 72.8176 58.9739 73.1375 54.6579 73.1355C50.3419 73.1345 46.8109 73.4236 46.8109 73.7776C46.8109 74.1326 45.1239 74.5225 43.0609 74.6445C38.3329 74.9245 34.6289 76.4116 28.3339 80.5556C25.5959 82.3576 22.7839 83.8316 22.0839 83.8316C21.3839 83.8316 20.8109 84.3165 20.8109 84.9085C20.8109 85.5005 19.4069 87.3895 17.6909 89.1055C14.6969 92.0995 14.5159 92.1485 13.1869 90.3305C11.4079 87.8985 12.3309 84.9916 15.8859 81.8316C23.4679 75.0926 25.7739 73.3345 26.9889 73.3645C27.7159 73.3835 30.1109 72.4156 32.3109 71.2135C34.5109 70.0115 37.8389 68.7086 39.7069 68.3186C42.8169 67.6686 43.0559 67.7866 42.5499 69.7206C41.8029 72.5766 43.3989 72.3906 45.3639 69.3916Z" fill="#201E1F"/>
<path d="M4.8109 96.7295C4.8109 96.1625 5.98892 94.1536 7.42992 92.2646C10.2269 88.5976 11.8109 87.8986 11.8109 90.3316C11.8109 91.1565 12.2609 91.8316 12.8109 91.8316C14.6449 91.8316 13.8399 94.0115 11.8109 94.5415C10.6069 94.8565 9.80488 95.9135 9.79588 97.1985C9.78688 98.3715 8.8439 102.932 7.6989 107.332C5.2299 116.826 4.63291 131.295 6.48991 136.627C7.19991 138.665 7.78788 140.846 7.79588 141.475C7.81788 143.139 4.76892 144.041 3.28392 142.809C1.38692 141.234 -0.429075 129.826 0.952925 128.161C1.76893 127.177 1.73388 126.832 0.816878 126.832C-1.10112 126.832 0.60787 110.167 3.35887 102.047C4.15787 99.6895 4.8109 97.2975 4.8109 96.7295Z" fill="#201E1F"/>
<path d="M343.386 121.832C341.264 121.832 341.382 119.181 343.561 117.912C347.688 115.508 351.279 118.286 351.979 124.422C352.293 127.178 352.589 127.348 357.561 127.634C362.185 127.9 362.811 127.706 362.811 126.007C362.811 124.945 363.551 123.463 364.455 122.712C365.924 121.493 366.018 121.603 365.341 123.736C364.671 125.848 364.839 126.058 366.796 125.546C368.013 125.228 368.738 125.239 368.406 125.57C368.075 125.901 368.48 127.203 369.305 128.464C370.705 130.6 370.621 130.927 368.07 133.293C366.564 134.689 363.84 136.111 362.016 136.453C357.498 137.301 351.611 136.226 350.569 134.364C350.097 133.521 349.131 132.832 348.422 132.832C346.645 132.832 344.445 127.918 344.728 124.582C344.893 122.647 344.495 121.832 343.386 121.832Z" fill="#201E1F"/>
<path d="M53.3579 123.433C50.6219 122.746 50.0769 120.966 52.0109 119.032C53.7259 117.317 54.3029 117.515 55.8099 120.33C57.4379 123.373 56.7229 124.278 53.3579 123.433Z" fill="#201E1F"/>
<path d="M235.528 122.449C234.565 123.412 227.811 120.508 227.811 119.131C227.811 118.417 228.599 117.847 229.561 117.865C231.57 117.903 236.379 121.598 235.528 122.449Z" fill="#201E1F"/>
<path d="M188.811 141.723C188.811 139.896 195.582 133.996 200.796 131.278C203.279 129.984 207.043 128.904 209.16 128.879C213.515 128.826 219.811 131.434 219.811 133.291C219.811 133.968 220.665 135.294 221.708 136.239C223.933 138.252 226.084 145.887 225.165 148.51C224.815 149.512 222.698 152.244 220.461 154.581C216.686 158.527 216.018 158.831 211.138 158.831C206.839 158.831 205.679 158.452 204.769 156.753C203.334 154.072 204.218 151.831 206.71 151.831C207.929 151.831 208.793 152.62 208.991 153.915C209.283 155.818 209.671 155.667 213.494 152.165C218.215 147.839 218.985 144.821 216.544 140.209C214.904 137.11 212.47 135.872 207.969 135.846C203.98 135.822 195.468 143.161 193.147 148.626C192.377 150.437 191.087 152.172 190.279 152.481C188.342 153.225 188.394 154.831 190.355 154.831C191.204 154.831 194.228 157.307 197.076 160.331C199.923 163.356 202.828 165.831 203.532 165.831C204.235 165.831 204.811 166.331 204.811 166.939C204.811 167.622 205.771 167.807 207.311 167.42C209.851 166.783 210.243 167.346 209.863 171.081C209.765 172.044 210.164 172.831 210.748 172.831C211.333 172.831 211.811 171.932 211.811 170.831C211.811 169.731 212.309 168.831 212.918 168.831C213.527 168.831 213.766 169.507 213.449 170.331C213.095 171.253 213.451 171.831 214.374 171.831C215.199 171.831 216.133 171.156 216.449 170.331C216.766 169.507 218.217 168.831 219.675 168.831C221.132 168.831 223.895 168.38 225.816 167.83C227.736 167.279 231.213 166.757 233.543 166.669C236.603 166.553 237.933 166.023 238.333 164.762C238.638 163.802 239.448 162.8 240.134 162.537C242.328 161.695 247.059 153.96 247.441 150.589C247.644 148.797 248.109 146.656 248.475 145.831C248.84 145.007 249.233 143.994 249.35 143.581C249.466 143.169 249.656 142.494 249.772 142.081C249.888 141.669 250.38 142.663 250.866 144.29C251.47 146.312 251.34 148.068 250.455 149.843C249.558 151.641 249.468 152.926 250.164 154.028C250.895 155.188 250.712 156.073 249.489 157.296C248.566 158.219 247.811 159.618 247.811 160.403C247.811 161.189 247.361 161.831 246.811 161.831C246.261 161.831 245.917 162.169 246.046 162.581C246.412 163.753 241.605 168.831 240.131 168.831C239.405 168.831 238.811 169.264 238.811 169.792C238.811 170.815 231.981 173.054 227.811 173.398C226.436 173.511 222.786 173.9 219.699 174.26C215.638 174.735 212.876 174.468 209.699 173.292C207.286 172.398 204.222 171.413 202.89 171.101C200.309 170.496 192.789 165.732 191.062 163.609C186.286 157.734 184.3 147.485 187.348 144.437C188.153 143.632 188.811 142.411 188.811 141.723Z" fill="#201E1F"/>
<path d="M13.1729 155.01C11.6519 155.439 5.8109 148.048 5.8109 145.693C5.8109 142.378 9.1899 143.745 12.6649 148.467C15.8059 152.734 15.9219 154.233 13.1729 155.01Z" fill="#201E1F"/>
<path d="M14.6209 158.831C14.0049 158.831 14.3019 157.946 15.2819 156.864C16.6539 155.348 17.4919 155.125 18.9369 155.898C19.9679 156.45 20.8109 157.337 20.8109 157.867C20.8109 158.398 21.4859 158.831 22.3109 158.831C23.1359 158.831 23.8109 159.507 23.8109 160.331C23.8109 161.156 24.5989 161.835 25.5609 161.838C26.5229 161.842 28.5999 162.517 30.1749 163.338C31.7509 164.16 33.6629 164.831 34.4249 164.831C35.1869 164.831 35.8109 165.188 35.8109 165.624C35.8109 167.908 62.9299 174.337 68.0229 173.262C69.5139 172.947 71.4549 173.092 72.3359 173.585C73.7889 174.398 73.7779 174.613 72.2119 175.906C70.7699 177.096 70.4099 177.106 70.0269 175.968C69.7609 175.175 69.3059 175.014 68.9399 175.583C67.7079 177.499 64.0599 177.937 62.4799 176.357C61.5279 175.405 60.6999 175.201 60.3159 175.823C59.3749 177.346 53.2219 177.031 51.8599 175.39C51.2029 174.598 50.0699 174.178 49.3429 174.457C45.8429 175.8 25.3299 167.157 19.0259 161.683C17.2199 160.115 15.2369 158.831 14.6209 158.831Z" fill="#201E1F"/>
</svg>
