<svg width="330" height="88" viewBox="0 0 330 88" fill="none" xmlns="http://www.w3.org/2000/svg">
<path d="M308.99 2.65198C317.624 1.86098 320.412 1.41101 321.129 0.695007C321.511 0.313007 323.731 0 326.063 0C329.81 0 330.242 0.232 329.78 2C329.183 4.28 324.006 4.866 323.152 2.75C322.875 2.063 322.612 2.513 322.569 3.75C322.485 6.135 320.004 6.861 319.152 4.75C318.831 3.955 318.619 4.09203 318.569 5.12903C318.452 7.53503 309.171 10.911 307.978 8.98102C307.523 8.24502 306.892 8.43499 306.073 9.55499C305.156 10.81 303.699 11.138 300.265 10.865C297.744 10.664 295.847 10.768 296.049 11.096C296.602 11.99 282.741 14.273 281.482 13.495C280.884 13.125 279.628 13.14 278.692 13.528C275.767 14.741 265.49 15.123 265.49 14.019C265.49 13.459 265.04 13 264.49 13C263.94 13 263.49 13.576 263.49 14.28C263.49 15.175 261.338 15.64 256.317 15.827C252.372 15.975 248.735 16.349 248.235 16.658C247.735 16.967 244.775 17.38 241.658 17.576C238.54 17.773 233.29 18.183 229.99 18.49C226.69 18.796 219.49 19.275 213.99 19.554C208.49 19.834 202.333 20.508 200.308 21.052C198.283 21.596 194.683 21.764 192.308 21.425C187.004 20.669 186.603 20.674 183.49 21.516C182.115 21.887 174.743 22.39 167.107 22.632C159.471 22.874 152.476 23.472 151.563 23.961C150.65 24.45 146.772 24.813 142.946 24.768C139.12 24.723 134.756 25.194 133.249 25.815C131.741 26.436 129.789 26.668 128.912 26.332C127.68 25.859 127.393 26.264 127.653 28.11C127.988 30.483 127.921 30.501 117.99 30.677C112.49 30.774 105.806 30.902 103.137 30.961C99.3067 31.046 97.8847 30.608 96.3867 28.881C93.3297 25.356 94.2287 21 98.0137 21C99.2837 21 100.473 20.557 100.657 20.015C101.111 18.674 110.895 16.885 111.32 18.066C111.502 18.57 112.322 18.311 113.142 17.491C113.962 16.671 116.513 15.968 118.811 15.93C123.154 15.856 126.556 15.567 142.49 13.914C147.715 13.372 153.79 12.957 155.99 12.992C158.19 13.027 160.44 13.06 160.99 13.064C161.54 13.069 164.966 12.774 168.603 12.41C173.268 11.943 175.433 12.099 175.952 12.939C176.497 13.82 177.164 13.7 178.51 12.482C179.983 11.148 182.305 10.865 190.661 11C203.511 11.208 201.737 11.246 209.99 10.583C218.841 9.87201 227.553 9.26697 238.99 8.56897C243.94 8.26697 249.488 7.84602 251.318 7.63202C253.506 7.37702 254.827 7.71403 255.173 8.61603C255.463 9.37103 256.15 9.71002 256.702 9.36902C257.336 8.97702 257.26 8.47603 256.496 8.00403C255.832 7.59303 257.307 7.21703 259.773 7.16803C262.239 7.11803 264.872 6.948 265.623 6.789C266.484 6.607 266.887 7.241 266.712 8.5C266.44 10.46 266.471 10.459 268.235 8.42102C270.173 6.18102 277.49 5.17902 277.49 7.15302C277.49 7.94002 277.856 7.94098 278.8 7.15698C280.03 6.13698 286.06 5.229 296.49 4.495C298.965 4.321 301.665 3.93802 302.49 3.64502C303.315 3.35102 306.24 2.90398 308.99 2.65198Z" fill="#201E1F"/>
<path d="M192.49 39.433C192.49 42.692 196.911 42.323 197.782 38.991C198.217 37.328 198.672 37.243 201.881 38.228C205.381 39.302 206.331 40.362 204.697 41.372C204.26 41.642 201.223 41.958 197.947 42.075C194.67 42.192 190.64 42.849 188.99 43.534C187.34 44.22 182.506 45.093 178.247 45.475C173.988 45.857 170.27 46.547 169.985 47.008C169.7 47.469 167.56 47.909 165.228 47.986C162.897 48.063 158.178 48.21 154.74 48.313C151.303 48.416 148.49 48.792 148.49 49.149C148.49 49.506 146.353 50.066 143.74 50.393C141.127 50.72 137.865 51.178 136.49 51.41C135.115 51.643 131.487 52.091 128.428 52.407C125.369 52.722 120.419 53.476 117.428 54.081C114.437 54.686 109.065 55.343 105.49 55.541C96.4767 56.039 86.1537 57.09 85.3397 57.593C84.9657 57.824 84.4707 57.447 84.2377 56.756C83.9067 55.773 83.4977 55.762 82.3567 56.703C81.5537 57.365 80.0187 57.907 78.9437 57.909C77.8687 57.91 71.1397 58.392 63.9897 58.98C56.8397 59.567 46.1917 60.218 40.3277 60.425C34.4637 60.632 28.8767 61.244 27.9117 61.784C26.8247 62.392 24.9847 62.424 23.0737 61.869C21.3777 61.376 18.8647 61.202 17.4897 61.481C16.1147 61.76 13.4147 62.071 11.4897 62.171C9.56471 62.272 7.48471 62.732 6.86671 63.194C5.50371 64.214 2.48971 63.2 2.48971 61.722C2.48971 61.136 1.77971 59.873 0.91171 58.913C-1.62529 56.11 1.38871 52.377 6.78471 51.637C13.3257 50.741 22.3877 50.565 23.1417 51.318C24.1557 52.333 28.2837 52.142 28.9587 51.05C29.2927 50.51 33.9597 50.259 39.7677 50.467C45.3897 50.669 51.8757 50.485 54.1797 50.058C56.4847 49.63 58.7347 49.645 59.1797 50.09C59.6257 50.535 62.0147 50.442 64.4897 49.883C66.9647 49.324 74.7737 48.715 81.8437 48.529C88.9137 48.343 95.1587 47.731 95.7207 47.169C96.3897 46.5 97.6087 46.475 99.2397 47.095C100.613 47.617 103.261 47.758 105.124 47.409C107.231 47.014 109.075 47.24 110.001 48.009C111.21 49.012 111.49 48.956 111.49 47.71C111.49 46.054 115.22 45.254 123.99 45.029C129.926 44.876 136.479 44.125 137.528 43.476C137.941 43.221 142.489 42.766 147.634 42.464C152.78 42.162 158.002 41.701 159.24 41.439C160.566 41.158 161.49 41.444 161.49 42.136C161.49 42.904 162.095 42.786 163.24 41.794C164.286 40.888 167.085 40.245 170.198 40.197C173.062 40.152 176.289 39.643 177.367 39.066C178.813 38.292 179.439 38.343 179.747 39.258C180.058 40.182 180.527 40.215 181.577 39.389C183.808 37.636 192.49 37.67 192.49 39.433Z" fill="#201E1F"/>
<path d="M158.99 75.465C172.327 74.689 182.179 73.387 188.99 71.498C189.54 71.345 192.086 71.214 194.648 71.205C198.353 71.194 199.406 71.571 199.792 73.047C200.059 74.069 199.763 75.115 199.134 75.373C198.505 75.631 198.778 75.878 199.74 75.921C203.574 76.094 201.177 77.759 196.24 78.352C187.283 79.428 185.795 79.216 184.98 76.75L184.236 74.5L183.807 76.649C183.318 79.097 179.987 80.019 169.49 80.612C165.915 80.814 161.523 81.261 159.731 81.605C157.813 81.972 155.898 81.754 155.078 81.073C154.145 80.298 153.569 80.262 153.336 80.963C153.14 81.551 148.171 82.295 141.988 82.663C131.271 83.3 131.028 83.268 132.46 81.409C133.677 79.828 133.504 79.865 131.46 81.62C130.101 82.786 127.077 84.029 124.74 84.382C121.013 84.945 120.49 84.791 120.49 83.134C120.49 80.035 122.494 79.304 132.899 78.604C138.349 78.237 144.874 77.473 147.399 76.905C149.924 76.337 155.14 75.689 158.99 75.465Z" fill="#201E1F"/>
<path d="M101.49 85.675C101.49 84.808 102.278 83.641 103.24 83.08C105.537 81.742 111.197 81.717 112.015 83.041C112.369 83.613 113.52 83.808 114.574 83.473C115.628 83.139 116.49 83.313 116.49 83.859C116.49 84.406 117.278 85.059 118.24 85.311C119.202 85.562 117.234 85.82 113.865 85.884C110.496 85.948 106.334 86.281 104.615 86.625C102.173 87.113 101.49 86.906 101.49 85.675Z" fill="#201E1F"/>
<path d="M91.6187 87.463C89.1907 86.824 89.1427 86.712 90.9897 86.009C92.1417 85.57 93.6007 85.725 94.4317 86.374C95.5537 87.25 95.6967 87.206 95.0757 86.173C94.4717 85.171 94.9747 84.926 97.1337 85.173C98.7047 85.353 99.9897 85.95 99.9897 86.5C99.9897 87.786 95.0167 88.359 91.6187 87.463Z" fill="#201E1F"/>
</svg>
